<?xml version="1.0" standalone="no"?>
<!DOCTYPE svg PUBLIC "-//W3C//DTD SVG 20010904//EN"
 "http://www.w3.org/TR/2001/REC-SVG-20010904/DTD/svg10.dtd">
<svg version="1.0" xmlns="http://www.w3.org/2000/svg"
 width="672.000000pt" height="672.000000pt" viewBox="0 0 672.000000 672.000000"
 preserveAspectRatio="xMidYMid meet">
<metadata>
Created by potrace 1.14, written by Peter Selinger 2001-2017
</metadata>
<g transform="translate(0.000000,672.000000) scale(0.100000,-0.100000)"
fill="#000000" stroke="none">
<path d="M879 6062 c-36 -18 -36 -18 -133 -247 -43 -99 -83 -194 -91 -210 -13
-28 -36 -83 -40 -95 -4 -10 -19 -47 -38 -90 -10 -25 -25 -58 -32 -75 -7 -16
-18 -43 -25 -60 -8 -16 -14 -32 -15 -35 -1 -3 -10 -23 -19 -45 -10 -22 -60
-141 -113 -265 -52 -124 -100 -238 -108 -255 -60 -135 -99 -236 -102 -268 -5
-41 14 -77 79 -148 18 -20 58 -65 88 -99 30 -34 66 -75 80 -90 14 -15 34 -38
45 -51 11 -13 43 -49 70 -80 28 -30 77 -86 110 -124 33 -38 80 -91 105 -119
43 -47 63 -69 113 -127 22 -26 59 -68 132 -150 22 -24 72 -80 110 -124 39 -43
93 -104 120 -135 28 -31 75 -84 105 -119 56 -64 62 -71 140 -158 25 -27 72
-81 105 -119 33 -37 82 -93 110 -124 86 -96 110 -122 120 -134 6 -6 57 -65
114 -131 58 -66 110 -124 115 -130 6 -5 40 -44 76 -85 36 -41 74 -84 85 -96
11 -12 36 -40 55 -63 19 -23 44 -52 56 -64 29 -31 118 -129 189 -212 86 -99
138 -158 155 -175 8 -8 44 -49 79 -90 36 -41 69 -79 75 -85 6 -5 38 -41 71
-79 33 -38 71 -81 84 -95 13 -14 44 -50 70 -80 25 -30 55 -64 66 -75 11 -12
49 -54 85 -95 133 -150 149 -163 204 -159 43 3 78 33 196 168 41 47 80 90 85
96 6 6 35 39 65 74 30 35 66 75 80 90 14 14 46 51 71 81 26 30 62 70 80 90 19
19 57 62 84 95 28 32 59 68 70 79 11 11 36 38 54 60 28 33 135 153 176 199 11
12 143 162 190 215 17 18 35 39 40 45 6 6 43 49 84 96 41 47 84 94 95 106 12
12 40 43 63 70 23 27 53 61 66 76 13 16 53 60 88 100 35 40 76 85 92 101 15
16 27 30 27 33 0 2 8 12 18 22 9 10 35 39 57 63 55 62 150 169 172 195 28 32
156 176 173 194 8 9 30 34 49 55 19 22 64 74 101 115 37 41 82 93 101 115 19
22 43 49 54 61 11 12 45 49 75 84 30 34 60 68 65 74 6 6 44 49 85 96 74 85
103 117 143 162 12 13 53 59 91 103 39 44 75 85 80 90 6 6 40 44 76 85 36 41
79 90 95 108 36 40 44 54 55 93 5 18 5 29 -1 29 -6 0 -7 5 -4 11 6 9 -78 219
-150 376 -14 29 -27 64 -31 78 -3 14 -10 28 -15 31 -5 3 -7 10 -4 15 4 5 1 9
-4 9 -6 0 -11 6 -11 13 0 8 -6 27 -14 43 -8 16 -33 74 -56 129 -23 55 -48 114
-55 130 -8 17 -32 75 -55 130 -23 55 -47 114 -55 130 -7 17 -34 80 -59 140
-26 61 -51 119 -56 130 -24 55 -65 151 -66 155 -2 24 -51 102 -72 117 -26 17
-129 18 -2490 19 -2144 0 -2466 -2 -2493 -14z m1441 -223 c0 -4 -63 -152 -140
-330 -77 -178 -140 -330 -140 -336 0 -7 -4 -13 -10 -13 -5 0 -10 -7 -10 -15 0
-8 -4 -23 -10 -33 -5 -9 -30 -66 -55 -127 -26 -60 -55 -127 -65 -150 -10 -22
-30 -69 -45 -105 -42 -100 -65 -153 -80 -180 l-14 -25 -649 0 -650 0 12 30 c7
16 55 129 107 250 51 121 92 223 91 228 -1 4 3 7 8 7 6 0 10 6 10 14 0 7 23
67 51 132 28 66 58 134 65 152 8 17 21 49 30 70 9 20 20 46 24 57 5 11 25 56
44 99 20 43 36 83 36 87 0 5 16 42 35 83 19 41 35 81 35 89 0 7 2 16 4 18 7 7
1316 5 1316 -2z m1827 -2 c12 -7 21 -25 57 -109 8 -18 28 -67 46 -108 18 -41
38 -90 46 -107 8 -18 21 -48 29 -66 8 -18 37 -87 66 -153 70 -162 72 -168 74
-174 1 -3 11 -27 23 -53 12 -27 22 -50 22 -53 0 -2 11 -27 24 -56 13 -29 45
-102 71 -163 26 -60 53 -124 60 -140 41 -91 53 -125 47 -128 -11 -5 -2690 -2
-2695 3 -3 3 6 28 19 55 13 28 79 181 147 340 69 160 136 316 151 347 14 31
26 63 26 70 0 8 4 18 9 24 5 5 21 37 35 71 14 35 38 89 52 120 41 94 65 149
89 208 9 22 21 49 26 60 10 20 19 20 787 20 427 0 783 -4 789 -8z m1569 1 c6
-4 23 -38 39 -75 26 -62 250 -588 280 -658 7 -16 30 -70 50 -120 21 -49 43
-103 51 -120 60 -134 141 -335 136 -338 -6 -3 -1278 -1 -1293 2 -4 0 -12 16
-20 34 -7 17 -22 55 -35 82 -12 28 -47 111 -79 185 -32 74 -81 189 -110 255
-29 66 -85 197 -125 290 -40 94 -88 206 -108 250 -61 141 -90 213 -87 217 6 6
1290 2 1301 -4z m-4075 -1548 l116 0 43 -97 c23 -54 50 -116 60 -138 10 -22
59 -134 110 -250 108 -247 125 -287 150 -340 10 -22 30 -68 44 -102 14 -35 37
-86 50 -115 32 -71 65 -146 81 -183 29 -67 45 -105 105 -240 45 -102 59 -133
90 -205 33 -78 156 -357 195 -445 12 -27 59 -135 104 -240 46 -104 91 -208
101 -230 43 -92 58 -130 54 -134 -3 -3 -11 5 -20 17 -9 13 -25 33 -37 45 -12
12 -47 52 -79 87 -31 36 -69 79 -85 97 -15 17 -47 53 -70 80 -22 26 -49 57
-60 68 -10 11 -47 54 -83 95 -36 41 -68 77 -71 80 -5 4 -119 133 -323 365 -33
38 -72 81 -86 96 -14 15 -45 50 -70 79 -25 29 -56 65 -70 80 -25 27 -53 58
-266 300 -65 74 -123 140 -129 146 -5 6 -39 44 -75 84 -36 41 -72 81 -80 90
-8 9 -44 50 -80 91 -36 41 -69 79 -75 85 -5 6 -37 42 -70 79 -33 38 -69 78
-80 91 -11 12 -47 53 -80 90 -33 38 -67 75 -75 84 -8 9 -42 47 -75 85 -33 39
-64 75 -70 81 -5 6 -37 41 -70 79 -33 37 -74 84 -92 104 l-32 36 167 5 c92 3
313 4 492 3 179 -2 377 -3 441 -3z m3077 -4 c3 -3 -2 -14 -11 -24 -10 -10 -17
-23 -17 -28 0 -8 -155 -366 -220 -509 -10 -22 -19 -43 -20 -47 0 -4 -19 -47
-41 -95 -22 -49 -44 -97 -48 -108 -35 -80 -50 -115 -116 -260 -14 -31 -25 -58
-25 -60 0 -2 -13 -34 -30 -69 -34 -76 -59 -133 -60 -144 -1 -4 -10 -23 -20
-42 -10 -19 -30 -64 -45 -100 -16 -36 -38 -87 -50 -115 -37 -82 -61 -136 -95
-215 -18 -41 -46 -103 -61 -138 -16 -34 -29 -64 -29 -67 0 -2 -13 -32 -29 -67
-16 -35 -52 -117 -81 -183 -29 -66 -60 -136 -68 -155 -9 -19 -16 -37 -17 -40
-1 -3 -9 -21 -18 -40 -8 -19 -31 -71 -50 -115 -19 -44 -44 -100 -55 -125 -11
-25 -36 -81 -55 -125 -19 -44 -47 -109 -63 -144 l-28 -64 -13 29 c-7 16 -24
56 -39 89 -14 33 -42 96 -61 139 -18 44 -40 94 -48 110 -36 81 -67 152 -90
206 -14 33 -37 86 -51 117 -15 32 -41 92 -59 133 -30 71 -56 128 -93 210 -9
19 -16 37 -17 40 0 3 -3 10 -7 15 -3 6 -18 39 -33 75 -15 36 -61 142 -102 235
-41 94 -116 262 -165 375 -82 187 -163 373 -208 475 -10 22 -66 150 -125 285
-59 134 -116 265 -127 290 -11 25 -24 54 -29 65 -5 11 -24 55 -44 99 -19 43
-35 82 -35 87 0 4 30 9 68 11 124 5 2624 0 2630 -6z m1427 4 c33 0 55 -4 49
-8 -6 -4 -34 -34 -64 -67 -29 -33 -83 -94 -120 -135 -86 -96 -230 -260 -250
-284 -8 -10 -22 -26 -31 -35 -9 -9 -56 -61 -104 -116 -49 -55 -94 -105 -100
-111 -6 -6 -31 -35 -56 -64 -24 -29 -55 -65 -69 -80 -14 -15 -50 -56 -80 -90
-30 -34 -66 -75 -80 -90 -14 -15 -50 -55 -80 -90 -30 -35 -59 -68 -65 -74 -5
-6 -46 -52 -90 -102 -44 -49 -109 -122 -144 -162 -35 -39 -72 -82 -83 -94 -11
-13 -34 -39 -51 -58 -18 -19 -97 -109 -177 -200 -80 -91 -149 -170 -155 -176
-5 -6 -37 -41 -70 -79 -33 -37 -71 -80 -85 -95 -14 -16 -32 -36 -40 -46 -9
-11 -38 -44 -65 -74 -61 -67 -166 -186 -195 -220 -71 -83 -153 -170 -157 -167
-2 3 3 17 12 33 19 37 85 182 85 188 0 6 66 154 85 189 8 16 15 32 15 37 0 4
18 48 41 97 54 119 63 137 94 213 15 36 32 71 37 78 6 6 8 12 4 12 -4 0 3 18
14 39 11 22 57 127 104 233 46 106 94 216 106 243 23 53 24 54 90 205 22 52
47 109 55 125 8 17 38 84 66 150 29 66 65 148 80 182 16 34 40 91 55 125 25
60 41 96 87 198 36 80 56 130 56 136 0 3 6 15 13 27 8 12 31 63 52 114 l38 92
72 3 c56 2 740 1 1101 -2z"/>
</g>
</svg>
